<?xml version="1.0" encoding="UTF-8" standalone="no"?>
<!-- Created with Inkscape (http://www.inkscape.org/) -->

<svg
   xmlns:dc="http://purl.org/dc/elements/1.1/"
   xmlns:cc="http://creativecommons.org/ns#"
   xmlns:rdf="http://www.w3.org/1999/02/22-rdf-syntax-ns#"
   xmlns:svg="http://www.w3.org/2000/svg"
   xmlns="http://www.w3.org/2000/svg"
   xmlns:sodipodi="http://sodipodi.sourceforge.net/DTD/sodipodi-0.dtd"
   xmlns:inkscape="http://www.inkscape.org/namespaces/inkscape"
   id="svg2"
   version="1.1"
   inkscape:version="0.48.2 r9819"
   width="544.31262"
   height="332.32529"
   xml:space="preserve"
   sodipodi:docname="logo.svg"
   inkscape:export-filename="/home/xananax/www/kc/themes/kawas/images/logo-large.png"
   inkscape:export-xdpi="67.70475"
   inkscape:export-ydpi="67.70475"><metadata
     id="metadata8"><rdf:RDF><cc:Work
         rdf:about=""><dc:format>image/svg+xml</dc:format><dc:type
           rdf:resource="http://purl.org/dc/dcmitype/StillImage" /><dc:title></dc:title></cc:Work></rdf:RDF></metadata><defs
     id="defs6"><clipPath
       clipPathUnits="userSpaceOnUse"
       id="clipPath16"><path
         d="m 0,595.276 841.89,0 L 841.89,0 0,0 0,595.276 z"
         id="path18"
         inkscape:connector-curvature="0" /></clipPath></defs><sodipodi:namedview
     pagecolor="#ffffff"
     bordercolor="#666666"
     borderopacity="1"
     objecttolerance="10"
     gridtolerance="10"
     guidetolerance="10"
     inkscape:pageopacity="0"
     inkscape:pageshadow="2"
     inkscape:window-width="640"
     inkscape:window-height="480"
     id="namedview4"
     showgrid="false"
     fit-margin-top="0"
     fit-margin-left="0"
     fit-margin-right="0"
     fit-margin-bottom="0"
     inkscape:zoom="0.86543704"
     inkscape:cx="251.18273"
     inkscape:cy="147.9275"
     inkscape:window-x="111"
     inkscape:window-y="24"
     inkscape:window-maximized="0"
     inkscape:current-layer="g10" /><g
     id="g10"
     inkscape:groupmode="layer"
     inkscape:label="logo black"
     transform="matrix(1.25,0,0,-1.25,-246.21712,568.90138)"><g
       id="g12"><g
         id="g14"
         clip-path="url(#clipPath16)"><g
           id="g20"
           transform="translate(559.293,438.3281)"><path
             d="m 0,0 c 0,0 -18.338,11.847 -44.247,16.793 l -0.024,-5.127 -20.657,0.1 -0.027,-5.881 -12.819,0.061 -0.04,-8.44 -12.377,-3.41 5.326,-5.379 -17.312,-10.096 5.101,-5.15 -10.879,-5.375 4.498,-4.545 -8.101,-8.028 4.447,-0.021 -6.631,-6.565 6.902,-0.032 -1.691,-6.741 -52.577,8.695 81.799,-78.039 7.936,114.701 c 0,0 -16.054,-14.097 -27.35,-59.726 0,0 -3.561,83.695 64.711,77.267 0,0 -6.114,-0.763 -6.118,-1.669 -0.005,-0.905 18.401,-78.225 18.401,-78.225 l -6.167,58.039 3.507,0.887 11.16,-55.235 5.537,70.65 L 0,0 z"
             style="fill:#231f20;fill-opacity:1;fill-rule:nonzero;stroke:none"
             id="path22"
             inkscape:connector-curvature="0" /></g><g
           id="g24"
           transform="translate(493.1582,418.6621)"><path
             d="M 0,0 -7.742,-106.26 40.067,-87.264 0,0 z"
             style="fill:#231f20;fill-opacity:1;fill-rule:nonzero;stroke:none"
             id="path26"
             inkscape:connector-curvature="0" /></g><g
           id="g28"
           transform="translate(494.1211,430.8711)"><path
             d="M 0,0 C 0,0 8.29,7.424 19.723,9.18 L 45.904,-97.014 43.297,-98.131 0,0 z"
             style="fill:#231f20;fill-opacity:1;fill-rule:nonzero;stroke:none"
             id="path30"
             inkscape:connector-curvature="0" /></g><g
           id="g32"
           transform="translate(487.8828,308.0938)"><path
             d="M 0,0 53.927,21.459 144.541,4.291 43.256,12.688 38.375,7.852 143.104,-11.764 0,0 z"
             style="fill:#231f20;fill-opacity:1;fill-rule:nonzero;stroke:none"
             id="path34"
             inkscape:connector-curvature="0" /></g><g
           id="g36"
           transform="translate(470.9414,311.7969)"><path
             d="M 0,0 -83.088,77.289 -135.104,29.816 0,0 z"
             style="fill:#231f20;fill-opacity:1;fill-rule:nonzero;stroke:none"
             id="path38"
             inkscape:connector-curvature="0" /></g><g
           id="g40"
           transform="translate(378.0459,324.6758)"><path
             d="M 0,0 -55.963,-22.348 -45.182,10.391 0,0 z"
             style="fill:#231f20;fill-opacity:1;fill-rule:nonzero;stroke:none"
             id="path42"
             inkscape:connector-curvature="0" /></g><g
           id="g44"
           transform="translate(381.7627,392.0547)"><path
             d="m 0,0 -51.79,-46.794 3.859,49.963 -136.858,-6.586 38.118,26.054 L 0,0 z"
             style="fill:#231f20;fill-opacity:1;fill-rule:nonzero;stroke:none"
             id="path46"
             inkscape:connector-curvature="0" /></g><g
           id="g48"
           transform="translate(326.0879,336.6816)"><path
             d="m 0,0 -10.787,-33.414 -103.827,-4.258 100.719,17.162 0.036,7.235 -100.422,-1.33 L 0,0 z"
             style="fill:#231f20;fill-opacity:1;fill-rule:nonzero;stroke:none"
             id="path50"
             inkscape:connector-curvature="0" /></g><g
           id="g52"
           transform="translate(325.3457,229.8398)"><path
             d="m 0,0 -0.008,-1.596 -20.187,0.096 0.007,1.516 c 1.243,0.338 2.485,0.687 3.285,1.216 l -0.357,0.354 c -4.576,4.625 -7.838,8.092 -17.796,18.059 L -35.139,2.199 c 1.152,-0.445 5.218,-1.885 5.487,-1.972 l -0.008,-1.68 -19.296,0.092 0.008,1.595 6.2,2.184 0.165,34.52 -6.18,2.333 0.007,1.5 19.204,-0.089 -0.008,-1.59 -5.413,-2.1 -0.065,-13.806 c 10.397,8.177 15.376,12.402 18.135,15.14 l 0.09,0.168 c -0.446,0.094 -1.148,0.363 -2.122,0.635 l 0.007,1.502 14.96,-0.072 -0.008,-1.588 -6.115,-1.391 C -15.42,33.977 -25.458,26.588 -29.367,23.246 -19.502,13.814 -12.271,6.961 -7.694,2.869 L 0,0 z"
             style="fill:#231f20;fill-opacity:1;fill-rule:nonzero;stroke:none"
             id="path54"
             inkscape:connector-curvature="0" /></g><g
           id="g56"
           transform="translate(365.7939,247.6211)"><path
             d="M 0,0 -6.998,18.09 -13.989,0.066 0,0 z m -20.26,-15.93 4.592,-2.05 -0.007,-1.514 -15.221,0.072 0.008,1.596 5.855,2.269 15.584,38.696 8.766,0.498 15.388,-39.295 5.835,-2.412 -0.007,-1.596 -19.473,0.092 0.006,1.515 5.056,2.002 -4.983,13.211 -16.287,0.078 -5.112,-13.162 z"
             style="fill:#231f20;fill-opacity:1;fill-rule:nonzero;stroke:none"
             id="path58"
             inkscape:connector-curvature="0" /></g><g
           id="g60"
           transform="translate(443.6367,237.334)"><path
             d="m 0,0 11.03,29.598 0.001,0.091 c 0.086,-0.001 -4.862,1.176 -4.862,1.176 l 0.008,1.588 14.161,-0.068 -0.008,-1.588 -4.963,-1.483 c -0.265,0 -14.978,-40.652 -14.978,-40.652 l -3.721,0.018 -13.018,35.035 -14.509,-34.903 -3.362,0.016 -13.175,39.635 -5.921,2.773 0.006,1.5 18.855,-0.09 -0.006,-1.24 -4.876,-2.451 c -0.087,0 8.621,-28.629 8.621,-28.629 l 13.441,33.039 5.135,-0.023 L 0,0 z"
             style="fill:#231f20;fill-opacity:1;fill-rule:nonzero;stroke:none"
             id="path62"
             inkscape:connector-curvature="0" /></g><g
           id="g64"
           transform="translate(498.1162,246.9902)"><path
             d="M 0,0 -6.994,18.092 -13.984,0.066 0,0 z m -20.259,-15.93 4.597,-2.049 -0.008,-1.515 -15.229,0.072 0.006,1.596 5.86,2.271 15.582,38.694 8.767,0.498 15.393,-39.293 5.83,-2.414 -0.008,-1.596 -19.47,0.092 0.007,1.515 5.055,2.004 -4.982,13.211 -16.288,0.078 -5.112,-13.164 z"
             style="fill:#231f20;fill-opacity:1;fill-rule:nonzero;stroke:none"
             id="path66"
             inkscape:connector-curvature="0" /></g><g
           id="g68"
           transform="translate(533.0068,230.0039)"><path
             d="M 0,0 0.58,11.063 2.795,10.961 4.44,3.873 c 2.645,-2.318 5.816,-4.545 10.864,-4.834 4.514,-0.201 8.787,3.588 8.982,8.195 0.208,5.748 -4.918,7.895 -9.604,9.159 -4.339,1.171 -15.217,2.195 -14.28,13.611 0.656,7.26 7.13,10.148 16.071,10.197 5.136,-0.025 10.792,-1.299 12.734,-2.543 l -0.75,-8.941 -1.768,0.099 c -0.001,-0.177 -1.3,5.229 -1.3,5.229 -1.328,1.072 -2.653,1.875 -3.798,2.408 C 16.908,38.775 7.258,37.764 7.756,30.766 8.085,25.275 14.453,24.717 18.436,23.729 27.096,21.383 31.858,18.26 31.472,8.881 31.16,0.824 24.319,-4.191 14.317,-3.789 8.828,-3.496 5.026,-2.771 0,0"
             style="fill:#231f20;fill-opacity:1;fill-rule:nonzero;stroke:none"
             id="path70"
             inkscape:connector-curvature="0" /></g><g
           id="g72"
           transform="translate(288.1553,190.5293)"><path
             d="m 0,0 c -6.604,0.186 -12.393,4.053 -12.147,13.215 0.179,6.355 4.31,12.185 12.967,12.348 5.901,0.121 8.648,-1.633 8.795,-1.79 L 8.938,17.721 7.845,17.875 7.01,21.832 C 6.31,22.238 5.511,22.738 4.711,23.047 3.716,23.402 2.313,23.752 0.161,23.67 -3.493,23.48 -6.812,19.34 -7.243,13.295 -7.627,7.09 -4.595,2.322 0.76,1.941 2.608,1.836 5.468,2.721 7.12,3.768 L 8.746,7.967 9.844,7.814 9.264,1.605 C 7.055,0.611 3.901,-0.117 0,0"
             style="fill:#231f20;fill-opacity:1;fill-rule:nonzero;stroke:none"
             id="path74"
             inkscape:connector-curvature="0" /></g><g
           id="g76"
           transform="translate(310.1797,204.0352)"><path
             d="m 0,0 c -0.232,-6.557 2.093,-11.863 7.896,-11.891 5.809,-0.027 8.085,5.362 7.917,11.815 C 15.685,5.629 13.76,10.145 8.001,10.172 2.298,10.199 0.172,5.805 0,0 M -5.158,-0.125 C -5.17,7.826 0.405,12.057 8.01,12.02 15.469,11.984 20.899,7.703 20.912,-0.25 20.918,-9.256 15.893,-13.785 7.887,-13.746 -0.116,-13.709 -5.147,-9.133 -5.158,-0.125"
             style="fill:#231f20;fill-opacity:1;fill-rule:nonzero;stroke:none"
             id="path78"
             inkscape:connector-curvature="0" /></g><g
           id="g80"
           transform="translate(356.8564,214.0215)"><path
             d="M 0,0 0.005,0.898 9.457,0.854 9.453,0.002 5.892,-1.281 5.786,-23.4 l -2.998,0.013 -15.712,20.403 0.068,-17.813 3.295,-1.172 -0.003,-0.906 -9.357,0.045 0.004,0.857 3.503,1.227 0.093,19.566 -3.491,1.317 0.004,0.851 8.556,-0.041 L 3.475,-16.627 3.345,-1.172 0,0 z"
             style="fill:#231f20;fill-opacity:1;fill-rule:nonzero;stroke:none"
             id="path82"
             inkscape:connector-curvature="0" /></g><g
           id="g84"
           transform="translate(373.7549,192.5723)"><path
             d="M 0,0 0.333,6.264 1.58,6.193 2.512,2.189 c 1.5,-1.31 3.292,-2.566 6.143,-2.736 2.55,-0.109 4.968,2.026 5.078,4.639 0.113,3.246 -2.781,4.463 -5.429,5.172 -2.451,0.664 -8.605,1.244 -8.075,7.701 0.375,4.103 4.037,5.736 9.088,5.758 2.906,-0.014 6.102,-0.727 7.198,-1.432 l -0.422,-5.062 -0.997,0.062 c -10e-4,-0.102 -0.743,2.955 -0.743,2.955 -0.745,0.604 -1.492,1.061 -2.14,1.361 -2.65,1.319 -8.104,0.743 -7.821,-3.211 0.181,-3.109 3.782,-3.423 6.03,-3.978 4.904,-1.336 7.593,-3.096 7.367,-8.397 C 17.614,0.467 13.754,-2.361 8.098,-2.143 4.995,-1.971 2.846,-1.564 0,0"
             style="fill:#231f20;fill-opacity:1;fill-rule:nonzero;stroke:none"
             id="path86"
             inkscape:connector-curvature="0" /></g><g
           id="g88"
           transform="translate(422.6221,199.6895)"><path
             d="m 0,0 c -0.035,-7.5 -3.747,-9.682 -10.503,-9.65 -6.952,0.033 -10.599,2.252 -10.563,9.75 l 0.061,12.765 -3.546,1.272 0.004,0.898 11.559,-0.055 -0.004,-0.898 -3.511,-1.238 -0.06,-12.356 c -0.028,-6.009 2.514,-8.418 6.068,-8.435 3.399,-0.016 5.911,2.369 5.939,8.379 l 0.059,12.355 -3.387,1.27 0.004,0.898 L 3.526,14.9 3.521,14.002 0.061,12.766 0,0 z"
             style="fill:#231f20;fill-opacity:1;fill-rule:nonzero;stroke:none"
             id="path90"
             inkscape:connector-curvature="0" /></g><g
           id="g92"
           transform="translate(443.9951,213.6543)"><path
             d="m 0,0 -3.505,-1.188 -0.095,-19.701 9.709,0.043 1.569,3.996 0.895,-0.005 -0.275,-6.153 -19.861,0.094 0.003,0.906 3.504,1.231 0.093,19.564 -3.442,1.268 0.004,0.851 L 0.005,0.852 0,0 z"
             style="fill:#231f20;fill-opacity:1;fill-rule:nonzero;stroke:none"
             id="path94"
             inkscape:connector-curvature="0" /></g><g
           id="g96"
           transform="translate(478.6133,212.3906)"><path
             d="m 0,0 c -1.154,0.107 -4.053,0.262 -7.257,0.188 l -0.095,-19.87 3.496,-1.263 -0.005,-0.907 -11.604,0.057 0.005,0.904 3.554,1.231 0.094,19.869 c -0.9,0.004 -3.602,0.018 -7.101,-0.119 -0.256,-0.549 -0.917,-2.449 -1.172,-3.399 l -0.945,0.057 c 0.054,0.953 0.259,2.949 0.373,5.455 8.654,-0.344 14.908,-0.178 22.762,-0.107 0,0.041 -0.057,-2.407 -0.027,-5.659 L 1.135,-3.607 C 0.789,-2.402 0.243,-0.553 0,0"
             style="fill:#231f20;fill-opacity:1;fill-rule:nonzero;stroke:none"
             id="path98"
             inkscape:connector-curvature="0" /></g><g
           id="g100"
           transform="translate(486.0117,191.3906)"><path
             d="M 0,0 3.557,1.23 3.65,20.795 0.105,22.063 0.109,22.914 11.665,22.859 11.661,22.008 8.248,20.773 8.154,1.209 11.604,-0.055 11.601,-0.959 -0.004,-0.904 0,0 z"
             style="fill:#231f20;fill-opacity:1;fill-rule:nonzero;stroke:none"
             id="path102"
             inkscape:connector-curvature="0" /></g><g
           id="g104"
           transform="translate(523.4395,213.2285)"><path
             d="M 0,0 0.005,0.898 9.46,0.854 9.456,0.002 5.897,-1.281 5.792,-23.402 l -3.001,0.015 -15.717,20.403 0.066,-17.815 3.297,-1.172 -0.003,-0.904 -9.359,0.045 0.004,0.857 3.511,1.227 0.093,19.566 -3.498,1.317 0.003,0.851 L -10.25,0.947 3.472,-16.627 3.349,-1.172 0,0 z"
             style="fill:#231f20;fill-opacity:1;fill-rule:nonzero;stroke:none"
             id="path106"
             inkscape:connector-curvature="0" /></g><g
           id="g108"
           transform="translate(557.4854,198.4082)"><path
             d="M 0,0 -2.491,1.111 -2.488,1.861 6.417,1.818 6.414,1.068 3.704,-0.018 3.669,-7.529 c -2.206,-0.994 -5.362,-1.723 -9.265,-1.606 -6.599,0.186 -12.388,4.053 -12.151,13.215 0.183,6.356 4.31,12.186 12.974,12.348 5.902,0.121 8.647,-1.633 8.794,-1.789 L 3.343,8.586 2.246,8.74 1.414,12.697 c -0.699,0.407 -1.497,0.91 -2.299,1.215 -0.997,0.356 -2.399,0.705 -4.553,0.623 -3.647,-0.181 -6.974,-4.324 -7.398,-10.375 -0.385,-6.205 2.645,-11.023 8,-11.353 1.402,-0.047 3.249,0.39 4.808,1.084 L 0,0 z"
             style="fill:#231f20;fill-opacity:1;fill-rule:nonzero;stroke:none"
             id="path110"
             inkscape:connector-curvature="0" /></g></g></g></g></svg>